<svg width="18" height="20" viewBox="0 0 18 20" fill="none" xmlns="http://www.w3.org/2000/svg">
<g id="apple_logo.svg" clip-path="url(#clip0_83_4088)">
<g id="Apple Logo">
<path id="Vector" d="M16.6233 6.82353C15.2906 7.64706 14.4675 9.05882 14.4675 10.6275C14.4675 12.3922 15.5258 14 17.1329 14.6667C16.8193 15.6863 16.3489 16.6275 15.761 17.4902C14.8987 18.7059 13.9971 19.9608 12.6644 19.9608C11.3318 19.9608 10.9398 19.1765 9.37191 19.1765C7.84324 19.1765 7.29448 20 6.04019 20C4.78589 20 3.92356 18.8627 2.94364 17.451C1.65015 15.4902 0.905408 13.2157 0.866211 10.8235C0.866211 6.94118 3.37481 4.86274 5.8834 4.86274C7.21609 4.86274 8.3136 5.72549 9.13673 5.72549C9.92067 5.72549 11.175 4.82353 12.6644 4.82353C14.2323 4.78431 15.7218 5.52941 16.6233 6.82353ZM11.9589 3.17647C12.6252 2.39216 12.978 1.41176 13.0172 0.392157C13.0172 0.27451 13.0172 0.117647 12.978 0C11.8413 0.117647 10.783 0.666667 10.0383 1.52941C9.37191 2.27451 8.97995 3.21569 8.94075 4.23529C8.94075 4.35294 8.94075 4.47059 8.97995 4.58824C9.05834 4.58824 9.17593 4.62745 9.25432 4.62745C10.3126 4.54902 11.2926 4 11.9589 3.17647Z" fill="black"/>
</g>
</g>
<defs>
<clipPath id="clip0_83_4088">
<rect width="16.2667" height="20" fill="white" transform="translate(0.866211)"/>
</clipPath>
</defs>
</svg>
