<svg width="237" height="74" viewBox="0 0 237 74" fill="none" xmlns="http://www.w3.org/2000/svg">
<g id="Layer_x0020_1">
<g id="_1606589875360">
<path id="Vector" d="M87.1875 56.1559H109.213V51.1998H92.8887V42.8544H107.582V37.8983H92.8887V30.3364H108.398V25.3802H87.1875V56.1443V56.1559ZM95.0991 17.0465H88.951L95.3285 23.3026H99.5803L95.1051 17.0465H95.0991Z" fill="white"/>
<path id="Vector_2" d="M130.134 56.1559H135.292V23.3026H129.863V37.9447H129.73C128.6 36.5983 126.426 34.7702 122.356 34.7702C116.159 34.7702 111.865 39.5522 111.865 45.7213C111.865 51.8904 115.887 56.6724 122.585 56.6724C125.617 56.6724 128.461 55.5407 130.044 53.022H130.134V56.1501V56.1559ZM117.289 45.7271C117.289 42.4656 119.686 39.471 123.666 39.471C127.646 39.471 130.044 42.4714 130.044 45.7271C130.044 48.9886 127.646 51.9832 123.666 51.9832C119.686 51.9832 117.289 48.9828 117.289 45.7271Z" fill="white"/>
<path id="Vector_3" d="M160.958 47.5495V46.116C160.958 38.8617 156.845 34.7761 150.781 34.7761C144.223 34.7761 138.98 39.1635 138.98 45.7272C138.98 52.2909 144.229 56.6783 150.781 56.6783C154.218 56.6783 157.431 55.506 159.961 52.5056L156.072 49.6793C154.713 51.2869 152.949 52.5056 150.238 52.5056C147.206 52.5056 144.766 50.6369 144.404 47.5495H160.958ZM144.404 43.6379C144.808 40.6376 146.801 38.6818 150.014 38.6818C153.408 38.6818 155.486 40.5911 155.534 43.6379H144.41H144.404ZM147.617 25.3861H141.469L147.846 31.6422H152.098L147.623 25.3861H147.617Z" fill="white"/>
<path id="Vector_4" d="M181.835 56.1559H186.993V23.3026H181.564V37.9447H181.431C180.301 36.5983 178.127 34.7702 174.057 34.7702C167.86 34.7702 163.566 39.5522 163.566 45.7213C163.566 51.8904 167.589 56.6724 174.286 56.6724C177.318 56.6724 180.163 55.5407 181.745 53.022H181.835V56.1501V56.1559ZM168.99 45.7271C168.99 42.4656 171.387 39.471 175.367 39.471C179.347 39.471 181.745 42.4714 181.745 45.7271C181.745 48.9886 179.347 51.9832 175.367 51.9832C171.387 51.9832 168.99 48.9828 168.99 45.7271Z" fill="white"/>
<path id="Vector_5" d="M211.581 35.2926H206.151V46.6789C206.151 49.4588 204.75 51.9833 201.175 51.9833C197.376 51.9833 197.195 48.1588 197.195 45.8548V35.2984H191.766V48.4664C191.766 52.7261 193.843 56.6783 199.677 56.6783C203.295 56.6783 205.33 54.8966 206.327 52.8132H206.417V56.1618H211.575V35.3042L211.581 35.2926ZM199.55 31.6422H203.802L210.18 25.3861H204.032L199.556 31.6422H199.55Z" fill="white"/>
<path id="Vector_6" d="M216.357 56.1559H221.787V44.7696C221.787 41.9897 223.188 39.4652 226.763 39.4652C230.562 39.4652 230.743 43.2897 230.743 45.5937V56.1501H236.173V42.9821C236.173 38.7224 234.095 34.7703 228.261 34.7703C224.643 34.7703 222.608 36.5519 221.612 38.6354H221.521V35.2868H216.363V56.1443L216.357 56.1559Z" fill="white"/>
<path id="Vector_7" d="M38.2085 1C58.7543 1 75.4169 17.0059 75.4169 36.755C75.4169 44.108 73.1038 50.9386 69.1481 56.6202L82.634 63.5205C71.0505 66.103 50.6978 72.51 38.2085 72.51C17.6626 72.51 1 56.5041 1 36.755C1 17.0117 17.6565 1 38.2085 1Z" stroke="white" stroke-width="1.99903" stroke-miterlimit="2.61313" stroke-linecap="round" stroke-linejoin="round"/>
<path id="Vector_8" fill-rule="evenodd" clip-rule="evenodd" d="M50.6141 26.4306C62.3667 38.7687 51.1456 54.972 38.2153 54.9139C47.0328 47.3636 51.6227 37.7996 50.6141 26.4306ZM29.2952 63.3986C27.4109 62.8066 26.3782 60.8624 26.9942 59.0518C50.9221 20.8593 27.8276 22.6236 27.8276 37.6139C27.8276 40.0629 28.7094 42.3088 30.183 44.0847C30.8594 44.8972 32.0612 46.0405 32.8886 46.644L29.7783 52.6796C28.3591 51.9077 27.0546 50.9502 25.9071 49.8475C22.6459 46.7195 20.6348 42.3901 20.6348 37.6139C20.6348 32.8376 22.6519 28.5141 25.9071 25.3802C28.4195 22.966 31.6747 21.2598 35.3164 20.604C38.3905 20.0526 41.3256 20.3602 43.8319 22.2928C55.047 30.9689 33.2691 62.766 29.3012 63.3927L29.2952 63.3986Z" fill="url(#paint0_linear_83_4115)"/>
<path id="Vector_9" d="M30.623 10.0999H40.5457C40.5457 12.9435 42.2971 15.5609 45.7939 17.9693V18.1957H39.1989C35.4243 16.1296 32.5677 13.5065 30.623 10.3262V10.0999Z" fill="#E3A23A"/>
</g>
</g>
<defs>
<linearGradient id="paint0_linear_83_4115" x1="41.2954" y1="38.7804" x2="19.6676" y2="46.0207" gradientUnits="userSpaceOnUse">
<stop stop-color="#4DA8DA"/>
<stop offset="1" stop-color="#21588F"/>
</linearGradient>
</defs>
</svg>
